<svg aria-hidden="true" style="position: absolute; width: 0; height: 0; overflow: hidden;" version="1.1" xmlns="http://www.w3.org/2000/svg" xmlns:xlink="http://www.w3.org/1999/xlink">
<defs>
<symbol id="icon-building" viewBox="0 0 22 28">
<title>building</title>
<path d="M6 20.5v1c0 0.266-0.234 0.5-0.5 0.5h-1c-0.266 0-0.5-0.234-0.5-0.5v-1c0-0.266 0.234-0.5 0.5-0.5h1c0.266 0 0.5 0.234 0.5 0.5zM6 16.5v1c0 0.266-0.234 0.5-0.5 0.5h-1c-0.266 0-0.5-0.234-0.5-0.5v-1c0-0.266 0.234-0.5 0.5-0.5h1c0.266 0 0.5 0.234 0.5 0.5zM10 16.5v1c0 0.266-0.234 0.5-0.5 0.5h-1c-0.266 0-0.5-0.234-0.5-0.5v-1c0-0.266 0.234-0.5 0.5-0.5h1c0.266 0 0.5 0.234 0.5 0.5zM6 12.5v1c0 0.266-0.234 0.5-0.5 0.5h-1c-0.266 0-0.5-0.234-0.5-0.5v-1c0-0.266 0.234-0.5 0.5-0.5h1c0.266 0 0.5 0.234 0.5 0.5zM18 20.5v1c0 0.266-0.234 0.5-0.5 0.5h-1c-0.266 0-0.5-0.234-0.5-0.5v-1c0-0.266 0.234-0.5 0.5-0.5h1c0.266 0 0.5 0.234 0.5 0.5zM14 16.5v1c0 0.266-0.234 0.5-0.5 0.5h-1c-0.266 0-0.5-0.234-0.5-0.5v-1c0-0.266 0.234-0.5 0.5-0.5h1c0.266 0 0.5 0.234 0.5 0.5zM10 12.5v1c0 0.266-0.234 0.5-0.5 0.5h-1c-0.266 0-0.5-0.234-0.5-0.5v-1c0-0.266 0.234-0.5 0.5-0.5h1c0.266 0 0.5 0.234 0.5 0.5zM6 8.5v1c0 0.266-0.234 0.5-0.5 0.5h-1c-0.266 0-0.5-0.234-0.5-0.5v-1c0-0.266 0.234-0.5 0.5-0.5h1c0.266 0 0.5 0.234 0.5 0.5zM18 16.5v1c0 0.266-0.234 0.5-0.5 0.5h-1c-0.266 0-0.5-0.234-0.5-0.5v-1c0-0.266 0.234-0.5 0.5-0.5h1c0.266 0 0.5 0.234 0.5 0.5zM14 12.5v1c0 0.266-0.234 0.5-0.5 0.5h-1c-0.266 0-0.5-0.234-0.5-0.5v-1c0-0.266 0.234-0.5 0.5-0.5h1c0.266 0 0.5 0.234 0.5 0.5zM10 8.5v1c0 0.266-0.234 0.5-0.5 0.5h-1c-0.266 0-0.5-0.234-0.5-0.5v-1c0-0.266 0.234-0.5 0.5-0.5h1c0.266 0 0.5 0.234 0.5 0.5zM6 4.5v1c0 0.266-0.234 0.5-0.5 0.5h-1c-0.266 0-0.5-0.234-0.5-0.5v-1c0-0.266 0.234-0.5 0.5-0.5h1c0.266 0 0.5 0.234 0.5 0.5zM18 12.5v1c0 0.266-0.234 0.5-0.5 0.5h-1c-0.266 0-0.5-0.234-0.5-0.5v-1c0-0.266 0.234-0.5 0.5-0.5h1c0.266 0 0.5 0.234 0.5 0.5zM14 8.5v1c0 0.266-0.234 0.5-0.5 0.5h-1c-0.266 0-0.5-0.234-0.5-0.5v-1c0-0.266 0.234-0.5 0.5-0.5h1c0.266 0 0.5 0.234 0.5 0.5zM10 4.5v1c0 0.266-0.234 0.5-0.5 0.5h-1c-0.266 0-0.5-0.234-0.5-0.5v-1c0-0.266 0.234-0.5 0.5-0.5h1c0.266 0 0.5 0.234 0.5 0.5zM18 8.5v1c0 0.266-0.234 0.5-0.5 0.5h-1c-0.266 0-0.5-0.234-0.5-0.5v-1c0-0.266 0.234-0.5 0.5-0.5h1c0.266 0 0.5 0.234 0.5 0.5zM14 4.5v1c0 0.266-0.234 0.5-0.5 0.5h-1c-0.266 0-0.5-0.234-0.5-0.5v-1c0-0.266 0.234-0.5 0.5-0.5h1c0.266 0 0.5 0.234 0.5 0.5zM18 4.5v1c0 0.266-0.234 0.5-0.5 0.5h-1c-0.266 0-0.5-0.234-0.5-0.5v-1c0-0.266 0.234-0.5 0.5-0.5h1c0.266 0 0.5 0.234 0.5 0.5zM14 26h6v-24h-18v24h6v-3.5c0-0.266 0.234-0.5 0.5-0.5h5c0.266 0 0.5 0.234 0.5 0.5v3.5zM22 1v26c0 0.547-0.453 1-1 1h-20c-0.547 0-1-0.453-1-1v-26c0-0.547 0.453-1 1-1h20c0.547 0 1 0.453 1 1z"></path>
</symbol>
<symbol id="icon-key" viewBox="0 0 32 32">
<title>key</title>
<path d="M18.532 19.468l-4.532 4.532h-3v3h-3v3h-5v-5l10.532-10.532c-0.344-0.924-0.532-1.924-0.532-2.968 0-4.694 3.806-8.5 8.5-8.5s8.5 3.806 8.5 8.5c0 4.694-3.806 8.5-8.5 8.5-1.044 0-2.044-0.188-2.968-0.532v0 0zM13.999 15.501l-9.999 9.999v3.5h3v-3h3v-3h3.5l3.999-3.999c-1.485-0.794-2.706-2.015-3.5-3.5v0 0zM29 11.5c0-4.142-3.358-7.5-7.5-7.5s-7.5 3.358-7.5 7.5c0 4.142 3.358 7.5 7.5 7.5s7.5-3.358 7.5-7.5v0 0zM27 9v0 0c0 1.657-1.343 3-3 3s-3-1.343-3-3c0-1.657 1.343-3 3-3s3 1.343 3 3zM26 9c0-1.105-0.895-2-2-2s-2 0.895-2 2c0 1.105 0.895 2 2 2s2-0.895 2-2v0 0z"></path>
</symbol>
<symbol id="icon-smiling-face" viewBox="0 0 32 32">
<title>smiling-face</title>
<path d="M16.5 29v0c-6.904 0-12.5-5.596-12.5-12.5s5.596-12.5 12.5-12.5c6.904 0 12.5 5.596 12.5 12.5s-5.596 12.5-12.5 12.5zM16.5 28c6.351 0 11.5-5.149 11.5-11.5s-5.149-11.5-11.5-11.5c-6.351 0-11.5 5.149-11.5 11.5s5.149 11.5 11.5 11.5v0zM12 14c0.552 0 1-0.448 1-1s-0.448-1-1-1c-0.552 0-1 0.448-1 1s0.448 1 1 1v0zM21 14c0.552 0 1-0.448 1-1s-0.448-1-1-1c-0.552 0-1 0.448-1 1s0.448 1 1 1v0zM16.481 22c-3.481 0-5.481-2-5.481-2v1c0 0 2 2 5.481 2s5.519-2 5.519-2v-1c0 0-2.037 2-5.519 2v0z"></path>
</symbol>
<symbol id="icon-high-five" viewBox="0 0 32 32">
<title>high-five</title>
<path d="M28 21.5v-12.006c0-1.378-1.109-2.494-2.5-2.494-0.563 0-1.081 0.184-1.5 0.497v-0.994c0-1.381-1.109-2.503-2.5-2.503-0.563 0-1.081 0.188-1.5 0.503 0-1.381-1.109-2.503-2.5-2.503-1.378 0-2.497 1.116-2.5 2.497-0.416-0.313-0.934-0.497-1.5-0.497-1.381 0-2.5 1.116-2.5 2.509v7.859c-1.956-1.828-4.188-3.194-5.609-1.772-1.987 1.988 2.188 5.887 5.45 11.831 2.262 4.119 5.547 5.572 8.659 5.572 4.694 0 8.5-3.806 8.5-8.5v0zM19.5 29c-3.759 0-5.991-2.050-7.753-5.016-3.912-6.581-6.713-9.594-5.625-10.688 1.109-1.116 3.822 1.303 5.878 3.503v-10.306c0-0.828 0.672-1.494 1.5-1.494 0.834 0 1.5 0.669 1.5 1.494v9.506h1v-11.509c0-0.816 0.672-1.491 1.5-1.491 0.834 0 1.5 0.669 1.5 1.491v10.509h1v-8.497c0-0.841 0.672-1.503 1.5-1.503 0.834 0 1.5 0.672 1.5 1.503v9.497h1v-6.509c0-0.828 0.672-1.491 1.5-1.491 0.834 0 1.5 0.669 1.5 1.491v12.009c0 4.141-3.359 7.5-7.5 7.5v0z"></path>
</symbol>
</defs>
</svg>
